<?xml version="1.0" encoding="UTF-8"?>
<!--
  Bootstrap Icons 1.13.1 — https://icons.getbootstrap.com/
  Copyright (c) 2019-2024 The Bootstrap Authors. Licensed under the MIT License.
  https://github.com/twbs/icons/blob/main/LICENSE

  Story 21.3: a SPRITE carrying ONLY the icons this UI uses, chosen over the full
  ~2000-icon webfont so there is no font to download and every icon is auditable in
  the diff. Reference an icon as:

    <svg class="bi" aria-hidden="true"><use href="{% static 'images/icons.svg' %}#bi-house-door"/></svg>

  To add an icon, copy the <path> data from the upstream icon of the same name and
  add a <symbol> below, keeping the viewBox. Do not hand-draw replacements.
-->
<svg xmlns="http://www.w3.org/2000/svg" style="display:none">
  <symbol id="bi-house-door" viewBox="0 0 16 16" fill="currentColor">
    <path d="M8.354 1.146a.5.5 0 0 0-.708 0l-6 6A.5.5 0 0 0 1.5 7.5v7a.5.5 0 0 0 .5.5h4.5a.5.5 0 0 0 .5-.5v-4h2v4a.5.5 0 0 0 .5.5H14a.5.5 0 0 0 .5-.5v-7a.5.5 0 0 0-.146-.354L13 5.793V2.5a.5.5 0 0 0-.5-.5h-1a.5.5 0 0 0-.5.5v1.293zM2.5 14V7.707l5.5-5.5 5.5 5.5V14H10v-4a.5.5 0 0 0-.5-.5h-3a.5.5 0 0 0-.5.5v4z"/>
  </symbol>
  <symbol id="bi-cloud-arrow-up" viewBox="0 0 16 16" fill="currentColor">
    <path fill-rule="evenodd" d="M7.646 5.146a.5.5 0 0 1 .708 0l2 2a.5.5 0 0 1-.708.708L8.5 6.707V10.5a.5.5 0 0 1-1 0V6.707L6.354 7.854a.5.5 0 1 1-.708-.708z"/>
    <path d="M4.406 3.342A5.53 5.53 0 0 1 8 2c2.69 0 4.923 2 5.166 4.579C14.758 6.804 16 8.137 16 9.773 16 11.569 14.502 13 12.687 13H3.781C1.708 13 0 11.366 0 9.318c0-1.763 1.266-3.223 2.942-3.593.143-.863.698-1.723 1.464-2.383m.653.757c-.757.653-1.153 1.44-1.153 2.056v.448l-.445.049C2.064 6.805 1 7.952 1 9.318 1 10.785 2.23 12 3.781 12h8.906C13.98 12 15 10.988 15 9.773c0-1.216-1.02-2.228-2.313-2.228h-.5v-.5C12.188 4.825 10.328 3 8 3a4.53 4.53 0 0 0-2.941 1.1z"/>
  </symbol>
  <symbol id="bi-clock-history" viewBox="0 0 16 16" fill="currentColor">
    <path d="M8.515 1.019A7 7 0 0 0 8 1V0a8 8 0 0 1 .589.022zm2.004.45a7 7 0 0 0-.985-.299l.219-.976q.576.129 1.126.342zm1.37.71a7 7 0 0 0-.439-.27l.493-.87a8 8 0 0 1 .979.654l-.615.789a7 7 0 0 0-.418-.302zm1.834 1.79a7 7 0 0 0-.653-.796l.724-.69q.406.429.747.91zm.744 1.352a7 7 0 0 0-.214-.468l.893-.45a8 8 0 0 1 .45 1.088l-.95.313a7 7 0 0 0-.179-.483m.53 2.507a7 7 0 0 0-.1-1.025l.985-.17q.1.58.116 1.17zm-.131 1.538q.05-.254.081-.51l.993.123a8 8 0 0 1-.23 1.155l-.964-.267q.069-.247.12-.501m-.952 2.379q.276-.436.486-.908l.914.405q-.24.54-.555 1.038zm-.964 1.205q.183-.183.35-.378l.758.653a8 8 0 0 1-.401.432z"/>
    <path d="M8 1a7 7 0 1 0 4.95 11.95l.707.707A8.001 8.001 0 1 1 8 0z"/>
    <path d="M7.5 3a.5.5 0 0 1 .5.5v5.21l3.248 1.856a.5.5 0 0 1-.496.868l-3.5-2A.5.5 0 0 1 7 9V3.5a.5.5 0 0 1 .5-.5"/>
  </symbol>
  <symbol id="bi-people" viewBox="0 0 16 16" fill="currentColor">
    <path d="M15 14s1 0 1-1-1-4-5-4-5 3-5 4 1 1 1 1zm-7.978-1L7 12.996c.001-.264.167-1.03.76-1.72C8.312 10.629 9.282 10 11 10c1.717 0 2.687.63 3.24 1.276.593.69.758 1.457.76 1.72l-.008.002-.014.002zM11 7a2 2 0 1 0 0-4 2 2 0 0 0 0 4m3-2a3 3 0 1 1-6 0 3 3 0 0 1 6 0M6.936 9.28a6 6 0 0 0-1.23-.247A7 7 0 0 0 5 9c-4 0-5 3-5 4q0 1 1 1h4.216A2.24 2.24 0 0 1 5 13c0-1.01.377-2.042 1.09-2.904.243-.294.526-.569.846-.816M4.92 10A5.5 5.5 0 0 0 4 13H1c0-.26.164-1.03.76-1.724.545-.636 1.492-1.256 3.16-1.275ZM1.5 5.5a3 3 0 1 1 6 0 3 3 0 0 1-6 0m3-2a2 2 0 1 0 0 4 2 2 0 0 0 0-4"/>
  </symbol>
  <symbol id="bi-key" viewBox="0 0 16 16" fill="currentColor">
    <path d="M0 8a4 4 0 0 1 7.465-2H14a.5.5 0 0 1 .354.146l1.5 1.5a.5.5 0 0 1 0 .708l-1.5 1.5a.5.5 0 0 1-.708 0L13 9.207l-.646.647a.5.5 0 0 1-.708 0L11 9.207l-.646.647a.5.5 0 0 1-.708 0L9 9.207l-.646.647A.5.5 0 0 1 8 10h-.535A4 4 0 0 1 0 8m4-3a3 3 0 1 0 2.712 4.285A.5.5 0 0 1 7.163 9h.63l.853-.854a.5.5 0 0 1 .708 0l.646.647.646-.647a.5.5 0 0 1 .708 0l.646.647.646-.647a.5.5 0 0 1 .708 0l.646.647.793-.793-1-1h-6.63a.5.5 0 0 1-.451-.285A3 3 0 0 0 4 5"/>
    <path d="M4 8a1 1 0 1 1-2 0 1 1 0 0 1 2 0"/>
  </symbol>
  <symbol id="bi-building" viewBox="0 0 16 16" fill="currentColor">
    <path d="M4 2.5a.5.5 0 0 1 .5-.5h1a.5.5 0 0 1 .5.5v1a.5.5 0 0 1-.5.5h-1a.5.5 0 0 1-.5-.5zm3 0a.5.5 0 0 1 .5-.5h1a.5.5 0 0 1 .5.5v1a.5.5 0 0 1-.5.5h-1a.5.5 0 0 1-.5-.5zm3.5-.5a.5.5 0 0 0-.5.5v1a.5.5 0 0 0 .5.5h1a.5.5 0 0 0 .5-.5v-1a.5.5 0 0 0-.5-.5zM4 5.5a.5.5 0 0 1 .5-.5h1a.5.5 0 0 1 .5.5v1a.5.5 0 0 1-.5.5h-1a.5.5 0 0 1-.5-.5zM7.5 5a.5.5 0 0 0-.5.5v1a.5.5 0 0 0 .5.5h1a.5.5 0 0 0 .5-.5v-1a.5.5 0 0 0-.5-.5zm2.5.5a.5.5 0 0 1 .5-.5h1a.5.5 0 0 1 .5.5v1a.5.5 0 0 1-.5.5h-1a.5.5 0 0 1-.5-.5zM4.5 8a.5.5 0 0 0-.5.5v1a.5.5 0 0 0 .5.5h1a.5.5 0 0 0 .5-.5v-1a.5.5 0 0 0-.5-.5zm2.5.5a.5.5 0 0 1 .5-.5h1a.5.5 0 0 1 .5.5v1a.5.5 0 0 1-.5.5h-1a.5.5 0 0 1-.5-.5zm3.5-.5a.5.5 0 0 0-.5.5v1a.5.5 0 0 0 .5.5h1a.5.5 0 0 0 .5-.5v-1a.5.5 0 0 0-.5-.5z"/>
    <path d="M2 1a1 1 0 0 1 1-1h10a1 1 0 0 1 1 1v14a1 1 0 0 1-1 1H3a1 1 0 0 1-1-1zm11 0H3v14h3v-2.5a.5.5 0 0 1 .5-.5h3a.5.5 0 0 1 .5.5V15h3z"/>
  </symbol>
  <symbol id="bi-shield-lock" viewBox="0 0 16 16" fill="currentColor">
    <path d="M5.338 1.59a61 61 0 0 0-2.837.856.48.48 0 0 0-.328.39c-.554 4.157.726 7.19 2.253 9.188a10.7 10.7 0 0 0 2.287 2.233c.346.244.652.42.893.533q.18.085.293.118a1 1 0 0 0 .101.025 1 1 0 0 0 .1-.025q.114-.034.294-.118c.24-.113.547-.29.893-.533a10.7 10.7 0 0 0 2.287-2.233c1.527-1.997 2.807-5.031 2.253-9.188a.48.48 0 0 0-.328-.39c-.651-.213-1.75-.56-2.837-.855C9.552 1.29 8.531 1.067 8 1.067c-.53 0-1.552.223-2.662.524zM5.072.56C6.157.265 7.31 0 8 0s1.843.265 2.928.56c1.11.3 2.229.655 2.887.87a1.54 1.54 0 0 1 1.044 1.262c.596 4.477-.787 7.795-2.465 9.99a11.8 11.8 0 0 1-2.517 2.453 7 7 0 0 1-1.048.625c-.28.132-.581.24-.829.24s-.548-.108-.829-.24a7 7 0 0 1-1.048-.625 11.8 11.8 0 0 1-2.517-2.453C1.928 10.487.545 7.169 1.141 2.692A1.54 1.54 0 0 1 2.185 1.43 63 63 0 0 1 5.072.56"/>
    <path d="M9.5 6.5a1.5 1.5 0 0 1-1 1.415l.385 1.99a.5.5 0 0 1-.491.595h-.788a.5.5 0 0 1-.49-.595l.384-1.99a1.5 1.5 0 1 1 2-1.415"/>
  </symbol>
  <symbol id="bi-list" viewBox="0 0 16 16" fill="currentColor">
    <path fill-rule="evenodd" d="M2.5 12a.5.5 0 0 1 .5-.5h10a.5.5 0 0 1 0 1H3a.5.5 0 0 1-.5-.5m0-4a.5.5 0 0 1 .5-.5h10a.5.5 0 0 1 0 1H3a.5.5 0 0 1-.5-.5m0-4a.5.5 0 0 1 .5-.5h10a.5.5 0 0 1 0 1H3a.5.5 0 0 1-.5-.5"/>
  </symbol>
  <symbol id="bi-sun" viewBox="0 0 16 16" fill="currentColor">
    <path d="M8 11a3 3 0 1 1 0-6 3 3 0 0 1 0 6m0 1a4 4 0 1 0 0-8 4 4 0 0 0 0 8M8 0a.5.5 0 0 1 .5.5v2a.5.5 0 0 1-1 0v-2A.5.5 0 0 1 8 0m0 13a.5.5 0 0 1 .5.5v2a.5.5 0 0 1-1 0v-2A.5.5 0 0 1 8 13m8-5a.5.5 0 0 1-.5.5h-2a.5.5 0 0 1 0-1h2a.5.5 0 0 1 .5.5M3 8a.5.5 0 0 1-.5.5h-2a.5.5 0 0 1 0-1h2A.5.5 0 0 1 3 8m10.657-5.657a.5.5 0 0 1 0 .707l-1.414 1.415a.5.5 0 1 1-.707-.708l1.414-1.414a.5.5 0 0 1 .707 0m-9.193 9.193a.5.5 0 0 1 0 .707L3.05 13.657a.5.5 0 0 1-.707-.707l1.414-1.414a.5.5 0 0 1 .707 0m9.193 2.121a.5.5 0 0 1-.707 0l-1.414-1.414a.5.5 0 0 1 .707-.707l1.414 1.414a.5.5 0 0 1 0 .707M4.464 4.465a.5.5 0 0 1-.707 0L2.343 3.05a.5.5 0 1 1 .707-.707l1.414 1.414a.5.5 0 0 1 0 .708"/>
  </symbol>
  <symbol id="bi-moon-stars" viewBox="0 0 16 16" fill="currentColor">
    <path d="M6 .278a.77.77 0 0 1 .08.858 7.2 7.2 0 0 0-.878 3.46c0 4.021 3.278 7.277 7.318 7.277q.792-.001 1.533-.16a.79.79 0 0 1 .81.316.73.73 0 0 1-.031.893A8.35 8.35 0 0 1 8.344 16C3.734 16 0 12.286 0 7.71 0 4.266 2.114 1.312 5.124.06A.75.75 0 0 1 6 .278M4.858 1.311A7.27 7.27 0 0 0 1.025 7.71c0 4.02 3.279 7.276 7.319 7.276a7.32 7.32 0 0 0 5.205-2.162q-.506.063-1.029.063c-4.61 0-8.343-3.714-8.343-8.29 0-1.167.242-2.278.681-3.286"/>
    <path d="M10.794 3.148a.217.217 0 0 1 .412 0l.387 1.162c.173.518.579.924 1.097 1.097l1.162.387a.217.217 0 0 1 0 .412l-1.162.387a1.73 1.73 0 0 0-1.097 1.097l-.387 1.162a.217.217 0 0 1-.412 0l-.387-1.162A1.73 1.73 0 0 0 9.31 6.593l-1.162-.387a.217.217 0 0 1 0-.412l1.162-.387a1.73 1.73 0 0 0 1.097-1.097zM13.863.099a.145.145 0 0 1 .274 0l.258.774c.115.346.386.617.732.732l.774.258a.145.145 0 0 1 0 .274l-.774.258a1.16 1.16 0 0 0-.732.732l-.258.774a.145.145 0 0 1-.274 0l-.258-.774a1.16 1.16 0 0 0-.732-.732l-.774-.258a.145.145 0 0 1 0-.274l.774-.258c.346-.115.617-.386.732-.732z"/>
  </symbol>
  <symbol id="bi-box-seam" viewBox="0 0 16 16" fill="currentColor">
    <path d="M8.186 1.113a.5.5 0 0 0-.372 0L1.846 3.5l2.404.961L10.404 2zm3.564 1.426L5.596 5 8 5.961 14.154 3.5zm3.25 1.7-6.5 2.6v7.922l6.5-2.6V4.24zM7.5 14.762V6.838L1 4.239v7.923zM7.443.184a1.5 1.5 0 0 1 1.114 0l7.129 2.852A.5.5 0 0 1 16 3.5v8.662a1 1 0 0 1-.629.928l-7.185 2.874a.5.5 0 0 1-.372 0L.63 13.09a1 1 0 0 1-.63-.928V3.5a.5.5 0 0 1 .314-.464z"/>
  </symbol>
  <symbol id="bi-github" viewBox="0 0 16 16" fill="currentColor">
    <path d="M8 0C3.58 0 0 3.58 0 8c0 3.54 2.29 6.53 5.47 7.59.4.07.55-.17.55-.38 0-.19-.01-.82-.01-1.49-2.01.37-2.53-.49-2.69-.94-.09-.23-.48-.94-.82-1.13-.28-.15-.68-.52-.01-.53.63-.01 1.08.58 1.23.82.72 1.21 1.87.87 2.33.66.07-.52.28-.87.51-1.07-1.78-.2-3.64-.89-3.64-3.95 0-.87.31-1.59.82-2.15-.08-.2-.36-1.02.08-2.12 0 0 .67-.21 2.2.82.64-.18 1.32-.27 2-.27s1.36.09 2 .27c1.53-1.04 2.2-.82 2.2-.82.44 1.1.16 1.92.08 2.12.51.56.82 1.27.82 2.15 0 3.07-1.87 3.75-3.65 3.95.29.25.54.73.54 1.48 0 1.07-.01 1.93-.01 2.2 0 .21.15.46.55.38A8.01 8.01 0 0 0 16 8c0-4.42-3.58-8-8-8"/>
  </symbol>
  <symbol id="bi-book" viewBox="0 0 16 16" fill="currentColor">
    <path d="M1 2.828c.885-.37 2.154-.769 3.388-.893 1.33-.134 2.458.063 3.112.752v9.746c-.935-.53-2.12-.603-3.213-.493-1.18.12-2.37.461-3.287.811zm7.5-.141c.654-.689 1.782-.886 3.112-.752 1.234.124 2.503.523 3.388.893v9.923c-.918-.35-2.107-.692-3.287-.81-1.094-.111-2.278-.039-3.213.492zM8 1.783C7.015.936 5.587.81 4.287.94c-1.514.153-3.042.672-3.994 1.105A.5.5 0 0 0 0 2.5v11a.5.5 0 0 0 .707.455c.882-.4 2.303-.881 3.68-1.02 1.409-.142 2.59.087 3.223.877a.5.5 0 0 0 .78 0c.633-.79 1.814-1.019 3.222-.877 1.378.139 2.8.62 3.681 1.02A.5.5 0 0 0 16 13.5v-11a.5.5 0 0 0-.293-.455c-.952-.433-2.48-.952-3.994-1.105C10.413.809 8.985.936 8 1.783"/>
  </symbol>
  <symbol id="bi-braces" viewBox="0 0 16 16" fill="currentColor">
    <path d="M2.114 8.063V7.9c1.005-.102 1.497-.615 1.497-1.6V4.503c0-1.094.39-1.538 1.354-1.538h.273V2h-.376C3.25 2 2.49 2.759 2.49 4.352v1.524c0 1.094-.376 1.456-1.49 1.456v1.299c1.114 0 1.49.362 1.49 1.456v1.524c0 1.593.759 2.352 2.372 2.352h.376v-.964h-.273c-.964 0-1.354-.444-1.354-1.538V9.663c0-.984-.492-1.497-1.497-1.6M13.886 7.9v.163c-1.005.103-1.497.616-1.497 1.6v1.798c0 1.094-.39 1.538-1.354 1.538h-.273v.964h.376c1.613 0 2.372-.759 2.372-2.352v-1.524c0-1.094.376-1.456 1.49-1.456V7.332c-1.114 0-1.49-.362-1.49-1.456V4.352C13.51 2.759 12.75 2 11.138 2h-.376v.964h.273c.964 0 1.354.444 1.354 1.538V6.3c0 .984.492 1.497 1.497 1.6"/>
  </symbol>
  <symbol id="bi-person-circle" viewBox="0 0 16 16" fill="currentColor">
    <path d="M11 6a3 3 0 1 1-6 0 3 3 0 0 1 6 0"/>
    <path fill-rule="evenodd" d="M0 8a8 8 0 1 1 16 0A8 8 0 0 1 0 8m8-7a7 7 0 0 0-5.468 11.37C3.242 11.226 4.805 10 8 10s4.757 1.225 5.468 2.37A7 7 0 0 0 8 1"/>
  </symbol>
  <symbol id="bi-box-arrow-right" viewBox="0 0 16 16" fill="currentColor">
    <path fill-rule="evenodd" d="M10 12.5a.5.5 0 0 1-.5.5h-8a.5.5 0 0 1-.5-.5v-9a.5.5 0 0 1 .5-.5h8a.5.5 0 0 1 .5.5v2a.5.5 0 0 0 1 0v-2A1.5 1.5 0 0 0 9.5 2h-8A1.5 1.5 0 0 0 0 3.5v9A1.5 1.5 0 0 0 1.5 14h8a1.5 1.5 0 0 0 1.5-1.5v-2a.5.5 0 0 0-1 0z"/>
    <path fill-rule="evenodd" d="M15.854 8.354a.5.5 0 0 0 0-.708l-3-3a.5.5 0 0 0-.708.708L14.293 7.5H5.5a.5.5 0 0 0 0 1h8.793l-2.147 2.146a.5.5 0 0 0 .708.708z"/>
  </symbol>
  <symbol id="bi-x-lg" viewBox="0 0 16 16" fill="currentColor">
    <path d="M2.146 2.854a.5.5 0 1 1 .708-.708L8 7.293l5.146-5.147a.5.5 0 0 1 .708.708L8.707 8l5.147 5.146a.5.5 0 0 1-.708.708L8 8.707l-5.146 5.147a.5.5 0 0 1-.708-.708L7.293 8z"/>
  </symbol>
</svg>
